<svg xmlns="http://www.w3.org/2000/svg" height="48" viewBox="0 -960 960 960" width="48"><path d="M223-116q-27.75 0-47.375-19.625T156-183v-427q0-27.75 19.625-47.375T223-677h98q0-68 45.556-113.5 45.555-45.5 112.31-45.5 66.924 0 113.529 46.095Q639-743.81 639-677h98q27.75 0 47.375 19.625T804-610v427q0 27.75-19.625 47.375T737-116H223Zm0-35h514q12 0 22-10t10-22v-427q0-12-10-22t-22-10H223q-12 0-22 10t-10 22v427q0 12 10 22t22 10Zm256.866-288q66.754 0 113.944-47.095T641-600h-35q0 53-37.444 89.5-37.443 36.5-88.791 36.5t-88.057-36.792Q355-547.583 355-600h-35q0 67 46.556 114 46.555 47 113.31 47ZM356-677h248q0-52-36.326-88t-87.792-36q-51.465 0-87.674 36.292Q356-728.417 356-677ZM191-151v-491 491Z"/></svg>